<?xml version="1.0" encoding="utf-8" ?>
<svg baseProfile="full" height="200mm" version="1.1" viewBox="0,0,200,200" width="200mm" xmlns="http://www.w3.org/2000/svg" xmlns:ev="http://www.w3.org/2001/xml-events" xmlns:xlink="http://www.w3.org/1999/xlink"><defs /><rect fill="#1a1a1a" height="200" width="200" x="0" y="0" /><text alignment-baseline="middle" fill="#e1ed5e" style="dominant-baseline: central; font-size:9.0px; font-family:Arial;" text-anchor="middle" x="100.0" y="100.0">2024</text><line stroke="#e1ed5e" stroke-width="0.3" x1="100.0" x2="100.0" y1="15.0" y2="10.0" /><path d="M 100.0 14.0 a86.0,86.0 0 0,1 42.35913384403234,11.155469271406648" fill="none" id="id1" stroke="none" /><text fill="#e1ed5e" style="font-size:6.75px; font-family:Arial;" text-anchor="middle"><textPath startOffset="22.145653131862478" xlink:href="#id1">January</textPath></text><line stroke="#e1ed5e" stroke-width="0.3" x1="143.13028292997686" x2="145.6673583964461" y1="26.7553504044142" y2="22.446841604673864" /><path d="M 143.63769802327073 25.89364864446614 a86.0,86.0 0 0,1 29.32050498858742,28.57503671076993" fill="none" id="id2" stroke="none" /><text fill="#e1ed5e" style="font-size:6.75px; font-family:Arial;" text-anchor="middle"><textPath startOffset="20.669276256404974" xlink:href="#id2">February</textPath></text><line stroke="#e1ed5e" stroke-width="0.3" x1="172.87174338648825" x2="177.1583165268699" y1="56.24261187166439" y2="53.66864786411523" /><path d="M 173.72905801456457 55.72781907015455 a86.0,86.0 0 0,1 12.242430191666344,42.057860355516425" fill="none" id="id3" stroke="none" /><text fill="#e1ed5e" style="font-size:6.75px; font-family:Arial;" text-anchor="middle"><textPath startOffset="22.145653131862474" xlink:href="#id3">March</textPath></text><line stroke="#e1ed5e" stroke-width="0.3" x1="184.99686870605535" x2="189.99668451229388" y1="99.2704041080226" y2="99.22748670261217" /><path d="M 185.99683186730306 99.26182062694052 a86.0,86.0 0 0,1 -10.086455211305974,41.156179273409016" fill="none" id="id4" stroke="none" /><text fill="#e1ed5e" style="font-size:6.75px; font-family:Arial;" text-anchor="middle"><textPath startOffset="21.40746469413373" xlink:href="#id4">April</textPath></text><line stroke="#e1ed5e" stroke-width="0.3" x1="174.33088141563837" x2="178.70328620479359" y1="141.23008692659167" y2="143.65538615756765" /><path d="M 175.20536237346943 141.71514677278685 a86.0,86.0 0 0,1 -30.301960400862466,31.631185727798858" fill="none" id="id5" stroke="none" /><text fill="#e1ed5e" style="font-size:6.75px; font-family:Arial;" text-anchor="middle"><textPath startOffset="22.145653131862474" xlink:href="#id5">May</textPath></text><path d="M 113.59037401385872 116.0094264158162 l 4.880386089787476 5.749082542213376 a28.54122791477447,28.54122791477447 0 0,0 -0.3762354486354548,0.313868992529123 l -4.7809763069901265 -5.832013718654369" fill="#ff5e08" stroke="none" /><path d="M 113.31354834802062 116.24036423190432 l 4.774936016381 5.82464554624875 a28.53170031931488,28.53170031931488 0 0,0 -0.38144061357630704,0.3072615575327787 l -4.67424463244944 -5.905755397574932" fill="#ff5e08" stroke="none" /><path d="M 113.03279911837588 116.46651593811092 l 4.5775262194063115 5.783554842236215 a28.37585607929725,28.37585607929725 0 0,0 -0.3845469739347586,0.29902605284324785 l -4.477569300836322 -5.861281946700255" fill="#ff5c08" stroke="none" /><path d="M 112.16784306229584 117.11559508785304 l 7.464490884054786 10.499741232226754 a33.882670146435466,33.882670146435466 0 0,0 -0.47694683902031776,0.33294593519438015 l -7.28314895386071 -10.626331983226255" fill="#ffa60f" stroke="none" /><line stroke="#e1ed5e" stroke-width="0.3" x1="143.1302829299769" x2="145.66735839644613" y1="173.24464959558577" y2="177.55315839532614" /><path d="M 143.63769802327073 174.10635135553383 a86.0,86.0 0 0,1 -40.68552437913181,11.842963189579606" fill="none" id="id6" stroke="none" /><text fill="#e1ed5e" style="font-size:6.75px; font-family:Arial;" text-anchor="middle"><textPath startOffset="21.407464694133747" xlink:href="#id6">June</textPath></text><path d="M 107.407793817531 119.65005319985036 l 1.2845760344551669 3.4074905482061535 a24.64158309316303,24.64158309316303 0 0,0 -0.3970942399591725,0.1458185052413525 l -1.2258926428418673 -3.4290399024562275" fill="#ff2803" stroke="none" /><path d="M 107.06938296918513 119.77432235084164 l 8.99343800521938 25.156246723752965 a47.71551377720549,47.71551377720549 0 0,0 -0.7736598583354622,0.26911905916986834 l -8.560272374838895 -25.306924215491424" fill="#b0ff20" stroke="none" /><path d="M 105.3480935250658 120.30758222061773 l 1.3999827725764273 5.315962618883773 a26.497218417425344,26.497218417425344 0 0,0 -0.4408565647285204,0.11206401479780218 l -1.3085209146225094 -5.3392118655168455" fill="#ff4206" stroke="none" /><path d="M 104.9986988182912 120.39639698878246 l 6.121523168075255 24.97790350065027 a46.71708982729343,46.71708982729343 0 0,0 -0.7805487948210974,0.18420739025360006 l -5.691842219514278 -25.079307034550094" fill="#bcff1f" stroke="none" /><path d="M 104.64783097203109 120.47920084513623 l 3.342029916543359 14.725600458193178 a36.10008188114919,36.10008188114919 0 0,0 -0.605514552460348,0.1319690784413896 l -3.0887529474638753 -14.780800994768287" fill="#ffc212" stroke="none" /><path d="M 104.29559338865022 120.5559693870025 l 2.7201483707459833 13.01689465881434 a34.298073308473725,34.298073308473725 0 0,0 -0.5773566406696324,0.11548749794969447 l -2.4962952445453923 -13.061671553426896" fill="#ffab0f" stroke="none" /><path d="M 103.94208987418118 120.62667999033965 l 0.6325436671635205 3.309735754111376 a24.369638297044933,24.369638297044933 0 0,0 -0.4115744885659906,0.07500258208429467 l -0.5756344450464727 -3.3201065101270344" fill="#ff2403" stroke="none" /><path d="M 103.58742460773223 120.69131181640829 l 0.5741114795760787 3.3113224500061262 a24.360723189864885,24.360723189864885 0 0,0 -0.41265034669198397,0.06790145751629052 l -0.5171836298310225 -3.3206899060180874" fill="#ff2403" stroke="none" /><path d="M 103.2317021107853 120.74984581791261 l 1.2137053411319116 7.792858943531908 a28.886807412944567,28.886807412944567 0 0,0 -0.4906285230163396,0.07210549716230673 l -1.0797517125078866 -7.812545513993096" fill="#ff6309" stroke="none" /><path d="M 102.875027216393 120.80226474461374 l 1.9359317441689428 14.00743771748677 a35.140584964114886,35.140584964114886 0 0,0 -0.5982637369715534,0.07745721840825183 l -1.6951901853066138 -14.038606532095418" fill="#ffb610" stroke="none" /><path d="M 102.51750503828377 120.84855314841334 l 1.7617221413820356 14.589586570352637 a35.69556739963618,35.69556739963618 0 0,0 -0.6089733462513599,0.0682367336443123 l -1.5110128935298766 -14.617679064503921" fill="#ffbd11" stroke="none" /><path d="M 102.15924093988457 120.88869738790638 l 1.7738704567558325 17.160587543556286 a38.252025424204845,38.252025424204845 0 0,0 -0.6537461250549816,0.061910437739990644 l -1.4790247683158355 -17.18850973680146" fill="#ffdd14" stroke="none" /><path d="M 101.80034050326958 120.92268563240118 l 1.980356661666011 23.01474626428771 a44.09979130028992,44.09979130028992 0 0,0 -0.7548015389174055,0.05842641281077011 l -1.5849861279733697 -23.045350444093533" fill="#daff1c" stroke="none" /><line stroke="#e1ed5e" stroke-width="0.3" x1="101.45913802915013" x2="101.54496967792366" y1="184.9874750549273" y2="189.98673829345242" /><path d="M 101.47630435890484 185.9873277026323 a86.0,86.0 0 0,1 -42.54439059252881,-10.42667462771756" fill="none" id="id7" stroke="none" /><text fill="#e1ed5e" style="font-size:6.75px; font-family:Arial;" text-anchor="middle"><textPath startOffset="22.145653131862474" xlink:href="#id7">July</textPath></text><path d="M 100.36049292484886 120.99690560180557 l 0.41646299782418783 24.256881756072577 a45.26045659002821,45.26045659002821 0 0,0 -0.7769559226730371,0.006669232150070617 l -2.9710490508831363e-15 -24.260456590028213" fill="#ccff1d" stroke="none" /><path d="M 100.0 121.0 l 2.944812855980713e-15 24.046221800693935 a45.046221800693935,45.046221800693935 0 0,0 -0.7732782976343945,-0.006637664162199135 l 0.41278537278553945 -24.04267853472617" fill="#cfff1d" stroke="none" /><path d="M 99.63950707515114 120.99690560180557 l -0.11491059531478616 6.692966092145888 a27.693952461403516,27.693952461403516 0 0,0 -0.47526341656417037,-0.012241099735290336 l 0.22978732594970042 -6.690007275060549" fill="#ff5207" stroke="none" /><path d="M 99.27912038922189 120.98762331915562 l -0.81935410860229 23.854600878204863 a44.86866825387909,44.86866825387909 0 0,0 -0.7695494505330569,-0.033047764573384375 l 1.2287293197361855 -23.83702054520565" fill="#d1ff1c" stroke="none" /><path d="M 98.91894614982273 120.97215588758144 l -0.3385530615326483 6.567838948555978 a27.576558874490672,27.576558874490672 0 0,0 -0.4725514504636942,-0.028427521811127038 l 0.4512488641287888 -6.561059448920159" fill="#ff5107" stroke="none" /><path d="M 97.84075906011543 120.88869738790638 l -3.0386096397110425 29.395791859750652 a50.55242337955261,50.55242337955261 0 0,0 -0.8624342087604805,-0.09663755195722694 l 3.542779750072322 -29.339298547286454" fill="#91ff24" stroke="none" /><path d="M 97.48249496171623 120.84855314841334 l -1.7642920452647795 14.610869061100766 a35.71700448942026,35.71700448942026 0 0,0 -0.608077201933039,-0.0787277679199294 l 2.0148470690886127 -14.57842969698044" fill="#ffbd11" stroke="none" /><path d="M 97.12497278360702 120.80226474461374 l -2.655673048778768 19.215127258913697 a40.397776030211766,40.397776030211766 0 0,0 -0.6861367856790561,-0.10083847907694454 l 2.985134940065509 -19.16670770653787" fill="#fff817" stroke="none" /><path d="M 96.41257539226777 120.69131181640829 l -4.073328097392001 23.493874020938314 a44.84437288545713,44.84437288545713 0 0,0 -0.7573686408645905,-0.13801779564237304 l 4.476031471807649 -23.420488051364575" fill="#d1ff1c" stroke="none" /><path d="M 95.00130118170881 120.39639698878247 l -0.7729761254198861 3.154006370462725 a24.24734480389573,24.24734480389573 0 0,0 -0.40342352037239454,-0.10254868130325902 l 0.8270049390176594 -3.1402724573242025" fill="#ff2203" stroke="none" /><path d="M 94.6519064749342 120.30758222061772 l -0.6394959498684659 2.4282702837636148 a23.511065837629033,23.511065837629033 0 0,0 -0.38940885629410854,-0.10613511540722478 l 0.6810862070972696 -2.4169346742122455" fill="#ff1702" stroke="none" /><path d="M 94.30408787586889 120.21278271476187 l -3.9662593251019453 14.074855120928174 a35.623021565636705,35.623021565636705 0 0,0 -0.587169154459964,-0.17091638336835044 l 4.207288491943516 -14.004695043257307" fill="#ffbc11" stroke="none" /><path d="M 92.59220618246901 119.65005319985036 l -7.394942455721141 19.61596343581611 a41.963568289742604,41.963568289742604 0 0,0 -0.6718721725599276,-0.2598945898043284 l 7.730586890774597 -19.486128957873742" fill="#f3ff19" stroke="none" /><path d="M 91.92203290615298 119.3841803445677 l -1.3000566097357462 3.119662594374789 a24.379710326530788,24.379710326530788 0 0,0 -0.38492651532299255,-0.16430224024592943 l 1.35341820022917 -3.0968857044694555" fill="#ff2403" stroke="none" /><path d="M 91.59046798132341 119.24265499422711 l -1.3085604345818505 2.994242358056572 a24.26769302562729,24.26769302562729 0 0,0 -0.3802939294451296,-0.17010063749730525 l 1.3597677668826151 -2.9713379696494115" fill="#ff2203" stroke="none" /><path d="M 90.6110303473126 118.78422872680471 l -1.4461170716349647 2.8932028586920637 a24.234482550025277,24.234482550025277 0 0,0 -0.37052536393668206,-0.18919289092381192 l 1.4955696572852293 -2.8679520160954155" fill="#ff2203" stroke="none" /><path d="M 90.28995756902619 118.62028667847754 l -1.5757164321780397 3.021644024700765 a24.40781673313659,24.40781673313659 0 0,0 -0.369849536510284,-0.19692404633373736 l 1.6273547844748857 -2.9941495106444544" fill="#ff2403" stroke="none" /><line stroke="#e1ed5e" stroke-width="0.3" x1="58.13341422392154" x2="55.67067388415222" y1="173.97424548756322" y2="178.32567169271397" /><path d="M 57.64086615596768 174.84453072859336 a86.0,86.0 0 0,1 -31.369924170532247,-30.572349798747897" fill="none" id="id8" stroke="none" /><text fill="#e1ed5e" style="font-size:6.75px; font-family:Arial;" text-anchor="middle"><textPath startOffset="22.145653131862474" xlink:href="#id8">August</textPath></text><path d="M 89.65649057296885 118.27599006163327 l -1.5990376492562446 2.825346309407539 a24.246460098603052,24.246460098603052 0 0,0 -0.36047273669076896,-0.20811903156393813 l 1.6473028538074133 -2.7974803805674293" fill="#ff2203" stroke="none" /><path d="M 89.34428304082925 118.09573695890944 l -5.5148939767590335 9.365495643520905 a31.86860452053078,31.86860452053078 0 0,0 -0.469025797691522,-0.2816365153080116 l 5.674852531007982 -9.269445127676974" fill="#ff8b0c" stroke="none" /><path d="M 89.03521579738668 117.91015095944536 l -32.89435260783996 53.73045287833606 a84.0,84.0 0 0,0 -1.2233434848411497,-0.7634568126338093 l 33.81186022147082 -53.1578602688607" fill="#4dd2ff" stroke="none" /><path d="M 88.4268655584334 117.5232005979908 l -7.165181550355741 10.84899810521084 a34.00156092692053,34.00156092692053 0 0,0 -0.48428538493989276,-0.32584881995759096 l 7.35036322339264 -10.724399611196128" fill="#ffa70f" stroke="none" /><path d="M 88.1277618465304 117.32195027204791 l -13.645535515942262 19.909244119529273 a45.13666590330679,45.13666590330679 0 0,0 -0.6353628575746293,-0.44353261935329646 l 13.985293464690658 -19.672066684370847" fill="#ceff1d" stroke="none" /><path d="M 87.83215693770417 117.11559508785305 l -13.938803053954782 19.606672099517198 a45.05642993868636,45.05642993868636 0 0,0 -0.6265396736596155,-0.4535664063677056 l 14.27332373798835 -19.364504921776426" fill="#cfff1d" stroke="none" /><path d="M 87.54013794807813 116.9041958592261 l -3.891832660032614 5.280018451438371 a27.55934114841012,27.55934114841012 0 0,0 -0.3784120784634565,-0.28396747836456393 l 3.981897727406837 -5.212431945809792" fill="#ff5107" stroke="none" /><path d="M 86.68645165197938 116.24036423190432 l -34.88621615220995 42.5555112862956 a76.02744422791909,76.02744422791909 0 0,0 -1.00220704144587,-0.8360767587027488 l 35.61159752781771 -41.95037234368098" fill="#43ffe0" stroke="none" /><path d="M 86.13680546590413 115.77377054828092 l -4.430752640730155 5.041383163106955 a27.71171462151033,27.71171462151033 0 0,0 -0.35462413740428467,-0.31710709038785556 l 4.5166418049578105 -4.9645805428357175" fill="#ff5307" stroke="none" /><path d="M 85.34317274990678 115.03919595460226 l -4.632439101838353 4.753290614096966 a27.637263268418938,27.637263268418938 0 0,0 -0.33692203343860233,-0.3340423752427591 l 4.713353055406918 -4.673068228625548" fill="#ff5207" stroke="none" /><path d="M 83.8745106332314 113.45245675266167 l -22.170361772619863 18.49530430695997 a49.87215306373766,49.87215306373766 0 0,0 -0.5427828197207215,-0.6621067848073078 l 22.484591411579217 -18.111995240454164" fill="#99ff23" stroke="none" /><path d="M 83.64595745247003 113.17365903436017 l -22.811961279368465 18.375701232648158 a50.29252418626557,50.29252418626557 0 0,0 -0.5358155213447041,-0.6769854075069445 l 23.124043231354733 -17.981395881226533" fill="#94ff23" stroke="none" /><path d="M 83.4222238831116 112.89097897827486 l -0.7108122733227876 0.5527319230453989 a21.900425825184826,21.900425825184826 0 0,0 -0.2282316612828871,-0.298762570954048 l 0.7201959119599698 -0.5404484388504806" fill="#ff0000" stroke="none" /><path d="M 82.98947788004972 112.3143062007846 l -2.675026669898116 1.9365130168318927 a24.30240069480152,24.30240069480152 0 0,0 -0.24173355117233483,-0.34002851284587904 l 2.7078753196004115 -1.8903072772765097" fill="#ff2303" stroke="none" /><path d="M 82.78059297857968 112.02048342749411 l -2.961832797643138 2.067589320282018 a24.612115601491574,24.612115601491574 0 0,0 -0.23886675039388777,-0.34851372744400344 l 2.996889284852351 -2.0164408577679636" fill="#ff2703" stroke="none" /><path d="M 82.18462484594161 111.11811171558189 l -2.830173869198955 1.766237813134492 a24.336087550176508,24.336087550176508 0 0,0 -0.21813482365529563,-0.35630684097250154 l 2.860076657309655 -1.7173938560374333" fill="#ff2303" stroke="none" /><path d="M 81.99639281039703 110.81064883170644 l -2.565848335104628 1.5407182024196615 a23.99288995087131,23.99288995087131 0 0,0 -0.20899668295131488,-0.3549220586904469 l 2.5919187281857132 -1.4964449754356557" fill="#ff1e03" stroke="none" /><line stroke="#e1ed5e" stroke-width="0.3" x1="26.387840678322732" x2="22.057713659400548" y1="142.50000000000003" y2="145.00000000000006" /><path d="M 25.521815274538298 143.00000000000003 a86.0,86.0 0 0,1 -11.493303480769221,-40.785679425670985" fill="none" id="id9" stroke="none" /><text fill="#e1ed5e" style="font-size:6.75px; font-family:Arial;" text-anchor="middle"><textPath startOffset="21.40746469413373" xlink:href="#id9">September</textPath></text><path d="M 81.63589988554817 110.18625677009913 l -23.606564958970992 13.09416364719492 a47.99494454118471,47.99494454118471 0 0,0 -0.3934548998913951,-0.7239127000512149 l 23.827865208477718 -12.686996113669117" fill="#adff20" stroke="none" /><path d="M 81.4637452351635 109.86951160357371 l -2.920245240969614 1.554866107348992 a24.308389469090404,24.308389469090404 0 0,0 -0.19295297051008037,-0.37001276275588985 l 2.9465062804546434 -1.5045071014885993" fill="#ff2303" stroke="none" /><path d="M 81.29705330413844 109.54985784667822 l -3.047058671109071 1.5558498686208992 a24.421291475286584,24.421291475286584 0 0,0 -0.18743932759372187,-0.3750042158152206 l 3.07331791191453 -1.5033137966419259" fill="#ff2403" stroke="none" /><path d="M 80.5471966667186 107.91128576633889 l -22.959019984513063 9.337233554498152 a45.78508682858538,45.78508682858538 0 0,0 -0.2898442909420564,-0.7305969534784547 l 23.115922950421243 -8.941735583806132" fill="#c6ff1e" stroke="none" /><path d="M 80.41425534168474 107.57618678355246 l -18.045597112214754 6.980424626583183 a40.34864085934158,40.34864085934158 0 0,0 -0.24433852700473227,-0.6481369720433566 l 18.16276632303392 -6.6696193743456815" fill="#fff717" stroke="none" /><path d="M 80.05021161711548 106.5578916946017 l -6.484674692573441 2.1316413734546282 a27.826045767025445,27.826045767025445 0 0,0 -0.14527221126014045,-0.45506313268176707 l 6.520311619610836 -2.0200092070814697" fill="#ff5407" stroke="none" /><path d="M 79.94057633289273 106.21446072829308 l -6.3832786605354395 1.977556046074045 a27.682587401105287,27.682587401105287 0 0,0 -0.13673046843160944,-0.4551312602340408 l 6.416285448970679 -1.8676871822492807" fill="#ff5207" stroke="none" /><path d="M 79.56144815229197 104.8234425847677 l -6.545056040138345 1.544615404209011 a27.72484909239391,27.72484909239391 0 0,0 -0.10534008678694404,-0.464147858933688 l 6.570606988482956 -1.4320332113362968" fill="#ff5307" stroke="none" /><path d="M 79.48165901384964 104.47187691870673 l -22.096006564734864 4.815721788575704 a43.61470058289008,43.61470058289008 0 0,0 -0.15315466012819703,-0.7329004913245042 l 22.17541893568743 -4.435704845965791" fill="#e0ff1b" stroke="none" /><path d="M 79.407916724674 104.11899336999214 l -6.66822769857891 1.3338322943242684 a27.800321259284544,27.800321259284544 0 0,0 -0.08958813406490294,-0.46876297376964154 l 6.69014212492597 -1.2191667555213124" fill="#ff5407" stroke="none" /><path d="M 79.0935383218832 101.97986365728391 l -3.266485020136644 0.30933952755861077 a24.281099713524,24.281099713524 0 0,0 -0.03573527757428336,-0.41529809350812685 l 3.271313920408668 -0.25322038667482194" fill="#ff2203" stroke="none" /><path d="M 79.06263194458094 101.62068470465958 l -18.353636422597717 1.420687535618318 a39.40853940449287,39.40853940449287 0 0,0 -0.04641957910178853,-0.6749304924427876 l 18.37531996286457 -1.105413619021187" fill="#ffec16" stroke="none" /><path d="M 79.03789590574601 101.26102812881392 l -5.8488973996208475 0.35185514346769375 a26.85947120764973,26.85947120764973 0 0,0 -0.02373662350718712,-0.46048415474949844 l 5.854075612584607 -0.25139919534146454" fill="#ff4706" stroke="none" /><path d="M 79.01933749520258 100.90099992219065 l -19.495839571160253 0.8372352366203972 a40.51380853205895,40.51380853205895 0 0,0 -0.023874812453999722,-0.6950891148928358 l 19.5073390706111 -0.5024398571634415" fill="#fff917" stroke="none" /><path d="M 79.00696218219943 100.54070618675478 l -34.03421410012107 0.876600627550333 a55.04550128979013,55.04550128979013 0 0,0 -0.016221564281789693,-0.9448247953302075 l 34.04424709600153 -0.29222891625107306" fill="#62ff29" stroke="none" /><line stroke="#e1ed5e" stroke-width="0.3" x1="15.003131293944662" x2="10.003315487706104" y1="100.72959589197737" y2="100.7725132973878" /><path d="M 14.003168132696942 100.73817937305945 a86.0,86.0 0 0,1 10.791469493833604,-42.45332614584628" fill="none" id="id10" stroke="none" /><text fill="#e1ed5e" style="font-size:6.75px; font-family:Arial;" text-anchor="middle"><textPath startOffset="22.145653131862435" xlink:href="#id10">October</textPath></text><path d="M 79.06263194458094 98.37931529534042 l -10.172332239470434 -0.787402849660387 a31.202761706411792,31.202761706411792 0 0,0 0.04592211077003692,-0.5336845366045336 l 10.157316506002653 0.9619084336406013" fill="#ff820c" stroke="none" /><path d="M 79.0935383218832 98.0201363427161 l -33.59900272159219 -3.181860490486187 a54.749329179503356,54.749329179503356 0 0,0 0.09663936409133456,-0.9348981834197176 l 33.53943096501919 3.758163196188818" fill="#65ff29" stroke="none" /><path d="M 79.13060592940154 97.66154086499901 l -24.607675130735647 -2.7573413250974825 a45.76167616545609,45.76167616545609 0 0,0 0.09417734157769873,-0.7799234882951815 l 24.55671570289828 3.1793584903161003" fill="#c7ff1e" stroke="none" /><path d="M 79.17382384314186 97.30363454192245 l -19.333321424152775 -2.5030855249358788 a40.49468528688648,40.49468528688648 0 0,0 0.09517308425138062,-0.6886250272240898 l 19.287503823346185 2.834598860360036" fill="#fff917" stroke="none" /><path d="M 79.22317932658666 96.9465228501225 l -6.675734065996157 -0.9811030161733195 a27.7474431044838,27.7474431044838 0 0,0 0.07330413049595615,-0.4706651026191346 l 6.657908443361934 1.0955563007239042" fill="#ff5307" stroke="none" /><path d="M 79.2786578344484 96.59031103205396 l -20.050344863852263 -3.2992766172958317 a41.319979216447095,41.319979216447095 0 0,0 0.12117611720295138,-0.6989116427265866 l 19.990753929157076 3.6429812929430105" fill="#fbff18" stroke="none" /><path d="M 79.48165901384962 95.52812308129327 l -6.604053144117744 -1.4393226452872963 a27.759080381795165,27.759080381795165 0 0,0 0.10547014798166907,-0.4647209325555442 l 6.578372134578413 1.5524779117818488" fill="#ff5307" stroke="none" /><path d="M 79.56144815229197 95.17655741523228 l -20.30135753965596 -4.791065101628159 a41.85903695670021,41.85903695670021 0 0,0 0.17104892851905382,-0.6979379989477201 l 20.216121084620607 5.138858925183997" fill="#f5ff19" stroke="none" /><path d="M 79.64726062577567 94.8264132398404 l -29.214196498636262 -7.426134508726576 a51.143270406553945,51.143270406553945 0 0,0 0.22359477187476332,-0.8490257682790061 l 29.08241224595677 7.926540781378367" fill="#8bff24" stroke="none" /><path d="M 79.73907114497095 94.47779374421319 l -6.475175153798038 -1.7648377819925762 a27.711374350243915,27.711374350243915 0 0,0 0.1290314271739333,-0.4578870151091393 l 6.443925234549523 1.8757327210047288" fill="#ff5307" stroke="none" /><path d="M 80.16572619554312 93.10060997987247 l -6.492313088106402 -2.258363505981214 a27.873887907083258,27.873887907083258 0 0,0 0.1610842998389434,-0.45058145591482496 l 6.452588618223516 2.3694799182769604" fill="#ff5507" stroke="none" /><path d="M 80.41425534168474 92.42381321644754 l -6.409312292099685 -2.4792596822939905 a27.872118496497905,27.872118496497905 0 0,0 0.17644554116311562,-0.44475802648947294 l 6.365808075970438 2.588918725997046" fill="#ff5507" stroke="none" /><path d="M 80.5471966667186 92.08871423366112 l -6.240483987487282 -2.537950510238658 a27.736826640971685,27.736826640971685 0 0,0 0.1831610004607072,-0.439519723684707 l 6.195997142490096 2.6447027433646286" fill="#ff5307" stroke="none" /><path d="M 80.68587082218212 91.75594674310238 l -13.598308461148077 -5.804309276660426 a35.785262905462915,35.785262905462915 0 0,0 0.24600854698397828,-0.5629156990817652 l 13.496666032147122 6.036887045518059" fill="#ffbe11" stroke="none" /><path d="M 81.29705330413844 90.45014215332179 l -22.07370446342736 -11.270990780397302 a45.78474655731896,45.78474655731896 0 0,0 0.3634260864348795,-0.6969174402645681 l 21.876970308017544 11.648254463766357" fill="#c6ff1e" stroke="none" /><path d="M 81.46374523516351 90.13048839642627 l -17.52045025502704 -9.328652917516747 a40.84917989223663,40.84917989223663 0 0,0 0.33487506108798315,-0.6161323946377004 l 17.357729844323707 9.628040145629068" fill="#fffd17" stroke="none" /><path d="M 81.63589988554816 89.8137432299009 l -5.693170183213674 -3.1579055309358237 a27.5103420860465,27.5103420860465 0 0,0 0.2326151843490614,-0.4110087419883213 l 5.638121633843244 3.2551710430232506" fill="#ff5007" stroke="none" /><line stroke="#e1ed5e" stroke-width="0.3" x1="26.387840678322718" x2="22.05771365940052" y1="57.49999999999999" y2="54.99999999999999" /><path d="M 25.521815274538284 56.99999999999999 a86.0,86.0 0 0,1 29.574782752854787,-30.34633250058573" fill="none" id="id11" stroke="none" /><text fill="#e1ed5e" style="font-size:6.75px; font-family:Arial;" text-anchor="middle"><textPath startOffset="21.40746469413373" xlink:href="#id11">November</textPath></text><path d="M 81.81346652052679 89.5 l -32.18734236888847 -18.58337078117641 a58.16674156235281,58.16674156235281 0 0,0 0.5066774394210076,-0.8604490624054564 l 31.863591219337682 19.13317101187544" fill="#42ff2d" stroke="none" /><path d="M 82.37810715431573 88.57770195909679 l -7.188044658128745 -4.659203703907247 a29.565988860706987,29.565988860706987 0 0,0 0.27971616313163983,-0.42352592219542107 l 7.107004056076375 4.781909504441729" fill="#ff6c0a" stroke="none" /><path d="M 82.576782715395 88.27688183743585 l -5.858662491956311 -3.9419695883878463 a28.061377374877395,28.061377374877395 0 0,0 0.27234270038564634,-0.3973561389228643 l 5.790130054755351 4.041960462380746" fill="#ff5708" stroke="none" /><path d="M 82.78059297857968 87.97951657250589 l -8.306769980540679 -5.7987705826851865 a31.13055614367873,31.13055614367873 0 0,0 0.30965253108473795,-0.4355650638195555 l 8.206002350925969 5.940512873214263" fill="#ff810b" stroke="none" /><path d="M 82.98947788004972 87.6856937992154 l -2.7481232648015688 -1.9894293144933326 a24.392640634654523,24.392640634654523 0 0,0 0.24845412232239428,-0.33707573392612816 l 2.7135671228953555 2.0363113576883243" fill="#ff2403" stroke="none" /><path d="M 83.2033758604659 87.39550010848427 l -8.615624604409042 -6.465325323081632 a31.77169526385606,31.77169526385606 0 0,0 0.3311034611712589,-0.4334250592370669 l 8.503369165883477 6.612271295559583" fill="#ff8a0c" stroke="none" /><path d="M 83.42222388311158 87.10902102172516 l -11.70667145665096 -9.103178531861069 a35.82949817009674,35.82949817009674 0 0,0 0.3817267387579705,-0.48229926439198634 l 11.548678287251429 9.302797740167739" fill="#ffbf11" stroke="none" /><path d="M 83.8745106332314 86.54754324733833 l -19.043323413079317 -15.886617690458035 a45.79985460154775,45.79985460154775 0 0,0 0.5088264318630852,-0.5993962573088498 l 18.76780241770912 16.21118073021644" fill="#c6ff1e" stroke="none" /><path d="M 85.60350026404147 84.71141617570332 l -20.36797135529662 -21.630079749075403 a50.71051340992857,50.71051340992857 0 0,0 0.6388805776024592,-0.591338324695629 l 19.993661006380208 21.9765358199034" fill="#8fff24" stroke="none" /><path d="M 86.40962598614128 83.9905735841838 l -23.05001611283554 -27.152861022479172 a56.61714621510329,56.61714621510329 0 0,0 0.7463371047070725,-0.6226209571456008 l 22.580504673966555 27.544544163536653" fill="#52ff2b" stroke="none" /><path d="M 86.68645165197937 83.75963576809568 l -15.671792854978396 -19.117039085199586 a45.719754745433875,45.719754745433875 0 0,0 0.6112279011584604,-0.49236193062034367 l 15.341314183464691 19.38324930961333" fill="#c7ff1e" stroke="none" /><path d="M 87.25179093698888 83.31218511350988 l -0.9485843471840607 -1.2417273604305548 a22.562593709626544,22.562593709626544 0 0,0 0.309802688504375,-0.23248171306362506 l 0.9271286697689334 1.2578281007581806" fill="#ff0a01" stroke="none" /><path d="M 87.83215693770416 82.88440491214696 l -14.211396955071915 -19.990109559307903 a45.5268889916304,45.5268889916304 0 0,0 0.6408558033101432,-0.44736712208035434 l 13.866146060588006 20.23112149719338" fill="#c9ff1d" stroke="none" /><path d="M 88.4268655584334 82.4767994020092 l -17.013007193180062 -25.759861282731226 a51.87090648265372,51.87090648265372 0 0,0 0.7472235466121392,-0.4843412752152147 l 16.568298014310898 26.048116399650347" fill="#83ff25" stroke="none" /><path d="M 88.72937992617638 82.28071324371311 l -18.56947310767959 -29.194296032774048 a55.59959902001874,55.59959902001874 0 0,0 0.8097310383443264,-0.5053320553755234 l 18.065577940545566 29.508763884991108" fill="#5cff2a" stroke="none" /><path d="M 89.03521579738668 82.08984904055464 l -2.0273904136325807 -3.3115898763641547 a24.882903475303866,24.882903475303866 0 0,0 0.36621382790283835,-0.21990088147773398 l 1.9702438291723081 3.345904758377812" fill="#ff2b04" stroke="none" /><line stroke="#e1ed5e" stroke-width="0.3" x1="56.869717070023135" x2="54.33264160355391" y1="26.7553504044142" y2="22.446841604673864" /><path d="M 56.362301976729285 25.89364864446614 a86.0,86.0 0 0,1 42.16139366436587,-11.88097634709845" fill="none" id="id12" stroke="none" /><text fill="#e1ed5e" style="font-size:6.75px; font-family:Arial;" text-anchor="middle"><textPath startOffset="22.145653131862474" xlink:href="#id12">December</textPath></text><path d="M 89.65649057296885 81.72400993836675 l -3.356524295829996 -5.930656814785421 a27.814612652473933,27.814612652473933 0 0,0 0.41755801394662906,-0.23161239156640215 l 3.254222093727264 5.98740212178497" fill="#ff5407" stroke="none" /><path d="M 89.97174638481275 81.54914285379989 l -12.18649058253957 -22.42177007883261 a46.51952833001344,46.51952833001344 0 0,0 0.7049063904259125,-0.37532294889145607 l 11.799795376327095 22.62766349544664" fill="#beff1f" stroke="none" /><path d="M 90.28995756902619 81.37971332152246 l -3.196179120303305 -6.12909489519533 a27.91240661444133,27.91240661444133 0 0,0 0.42675780668375524,-0.21790557686248813 l 3.0904940919059674 6.183058423730651" fill="#ff5507" stroke="none" /><path d="M 90.93487009805054 81.0573650232925 l -15.995401010874788 -33.42423615903177 a58.05445204443618,58.05445204443618 0 0,0 0.9026397048815655,-0.4224809588351399 l 15.4192725921217 33.69389334943745" fill="#43ff2d" stroke="none" /><path d="M 91.92203290615298 80.6158196554323 l -11.684462314697397 -28.038455976122894 a51.37567568151473,51.37567568151473 0 0,0 0.8169846522461238,-0.3322605456856716 l 11.201423201260834 28.234903778387856" fill="#88ff25" stroke="none" /><path d="M 92.25597844496254 80.48000691201159 l -12.942751437638268 -32.624188453854146 a56.0977561540489,56.0977561540489 0 0,0 0.8981724586126453,-0.3474324019333582 l 12.380806716532094 32.84156074392555" fill="#57ff2a" stroke="none" /><path d="M 92.592206182469 80.34994680014964 l -7.240894157961873 -19.207332023970864 a41.526864146426824,41.526864146426824 0 0,0 0.669197205949339,-0.24573848337174325 l 6.910107800358407 19.328801356351327" fill="#f9ff18" stroke="none" /><path d="M 92.93061703081487 80.22567764915836 l -2.3248890167863125 -6.5031283562167905 a27.906213677392593,27.906213677392593 0 0,0 0.4524716514871872,-0.15739312804887373 l 2.212911593254121 6.54207991683425" fill="#ff5507" stroke="none" /><path d="M 93.27111125876988 80.10723608172694 l -9.762751626111582 -28.861840455318674 a51.46829752023263,51.46829752023263 0 0,0 0.8393676967933239,-0.27591683389685945 l 9.265861191670497 29.02517821061756" fill="#87ff25" stroke="none" /><path d="M 94.30408787586887 79.78721728523814 l -8.339568166137273 -29.594185374268086 a51.746775524665885,51.746775524665885 0 0,0 0.8570709985303333,-0.23359851187487862 l 7.830315766672261 29.732984380287103" fill="#84ff25" stroke="none" /><path d="M 94.6519064749342 79.69241777938228 l -6.627062316198844 -25.164035041011996 a47.02204093625368,47.02204093625368 0 0,0 0.7823453430888868,-0.19886912687553063 l 6.194111679884578 25.27408939972279" fill="#b8ff1f" stroke="none" /><path d="M 95.35216902796891 79.52079915486377 l -1.5301162916126565 -6.741974706248204 a27.91342742824057,27.91342742824057 0 0,0 0.46819801053338456,-0.10204157724554377 l 1.4141558644601535 6.767247741627462" fill="#ff5507" stroke="none" /><path d="M 95.70440661134978 79.44403061299748 l -7.819918462603395 -37.42114068590692 a59.22947678161714,59.22947678161714 0 0,0 0.9970394382125272,-0.1994358113605195 l 7.176382538859891 37.54986589393031" fill="#38ff2e" stroke="none" /><path d="M 96.76829788921471 79.25015418208739 l -1.0807308246390979 -6.939067158166259 a28.022722559012756,28.022722559012756 0 0,0 0.4759524575867153,-0.06994862094221803 l 0.9614532614446978 6.956596852407363" fill="#ff5708" stroke="none" /><path d="M 97.12497278360702 79.19773525538626 l -5.551967960766011 -40.171274454356734 a61.55312120570532,61.55312120570532 0 0,0 1.0479336172801772,-0.13567598711884457 l 4.861556521595039 40.26066203767597" fill="#31ff41" stroke="none" /><path d="M 97.84075906011542 79.11130261209362 l -2.761428386030589 -26.71431466895543 a47.856658298514034,47.856658298514034 0 0,0 0.8178940742033717,-0.07745541918832259 l 2.3024347484422014 26.75778184364894" fill="#afff20" stroke="none" /><path d="M 98.1996594967304 79.07731436759882 l -2.5164961389903127 -29.245499679435536 a50.353568851460246,50.353568851460246 0 0,0 0.8618397080445557,-0.0667118440579017 l 2.01408743617054 29.28438929048849" fill="#93ff23" stroke="none" /><path d="M 98.5590905019552 79.04949213459386 l -0.3428832030482806 -4.985446519803047 a25.997223818556556,25.997223818556556 0 0,0 0.4454879914277854,-0.026799451320023985 l 0.25725085948801146 4.990597948947765" fill="#ff3b05" stroke="none" /><path d="M 98.9189461498227 79.02784411241856 l -2.4440793526361966 -47.41448650009356 a68.47743731447115,68.47743731447115 0 0,0 1.1744670905116508,-0.050436670287437826 l 1.6297865015237256 47.449455738806826" fill="#3aff90" stroke="none" /><path d="M 99.63950707515114 79.00309439819443 l -0.49602376593304426 -28.89089763388526 a49.89515540134725,49.89515540134725 0 0,0 0.8565166907818893,-0.007352165656427535 l 7.077271914625053e-15 28.895155401347253" fill="#98ff23" stroke="none" /></svg>